# xmcd
#
# Track frame offsets: 
#        150
#        22975
#        47111
#        68666
#        121653
#        139789
#        165080
#        181992
#        206390
#        239080
#        257645
#
# Disc length: 3774 seconds
#
# Revision: 1
# Processed by: cddbd v1.5.2PL0 Copyright (c) Steve Scherf et al.
# Submitted via: ExactAudioCopy v1.0b1
#
DISCID=8b0ebc0b
DTITLE=George Ross-Watt And The Business - Home Of The Wolf
DYEAR=1998
DGENRE=Blues
TTITLE0='Til The Sun Goes Down
TTITLE1=Home Of The Wolf
TTITLE2=When The Gypsy Casts Her Spell
TTITLE3=Take A Walk In The Wilderness
TTITLE4=Whiskey River
TTITLE5=The Storm
TTITLE6=Bob's Shop Is Up For Sale
TTITLE7=Prayin' For Rain
TTITLE8=Someone To Love You
TTITLE9=Shooter Girl
TTITLE10=Walkin' On Frozen Water
EXTD=YEAR: 1998
EXTT0=
EXTT1=
EXTT2=
EXTT3=
EXTT4=
EXTT5=
EXTT6=
EXTT7=
EXTT8=
EXTT9=
EXTT10=
PLAYORDER=
